<mxfile modified="2023-12-30T04:15:14.334Z" host="Electron" agent="Mozilla/5.0 (X11; Linux x86_64) AppleWebKit/537.36 (KHTML, like Gecko) draw.io/22.1.11 Chrome/114.0.5735.289 Electron/25.9.8 Safari/537.36" etag="iVszcShGVqjHff1vbvke" version="22.1.11" type="device" pages="7">
  <diagram id="Ht1M8jgEwFfnCIfOTk4-" name="overview">
    <mxGraphModel dx="876" dy="669" grid="1" gridSize="10" guides="1" tooltips="1" connect="1" arrows="1" fold="1" page="1" pageScale="1" pageWidth="1169" pageHeight="827" math="0" shadow="0">
      <root>
        <mxCell id="0" />
        <mxCell id="1" parent="0" />
        <mxCell id="Ppu2Rc4KOoDO8tjX3kSv-1" value="landing page" style="rounded=0;whiteSpace=wrap;html=1;" vertex="1" parent="1">
          <mxGeometry x="540" y="20" width="120" height="60" as="geometry" />
        </mxCell>
        <mxCell id="Ppu2Rc4KOoDO8tjX3kSv-2" value="enter meet" style="rounded=0;whiteSpace=wrap;html=1;" vertex="1" parent="1">
          <mxGeometry x="260" y="200" width="120" height="60" as="geometry" />
        </mxCell>
        <mxCell id="Ppu2Rc4KOoDO8tjX3kSv-3" value="Weigh-In" style="rounded=0;whiteSpace=wrap;html=1;" vertex="1" parent="1">
          <mxGeometry x="400" y="200" width="120" height="60" as="geometry" />
        </mxCell>
        <mxCell id="Ppu2Rc4KOoDO8tjX3kSv-4" value="Summary of Entrants" style="rounded=0;whiteSpace=wrap;html=1;" vertex="1" parent="1">
          <mxGeometry x="540" y="200" width="120" height="60" as="geometry" />
        </mxCell>
        <mxCell id="Ppu2Rc4KOoDO8tjX3kSv-5" value="Run Meet" style="rounded=0;whiteSpace=wrap;html=1;" vertex="1" parent="1">
          <mxGeometry x="680" y="200" width="120" height="60" as="geometry" />
        </mxCell>
        <mxCell id="Ppu2Rc4KOoDO8tjX3kSv-6" value="" style="endArrow=classic;html=1;rounded=0;exitX=0;exitY=1;exitDx=0;exitDy=0;entryX=0.5;entryY=0;entryDx=0;entryDy=0;" edge="1" parent="1" source="Ppu2Rc4KOoDO8tjX3kSv-1" target="Ppu2Rc4KOoDO8tjX3kSv-2">
          <mxGeometry width="50" height="50" relative="1" as="geometry">
            <mxPoint x="500" y="320" as="sourcePoint" />
            <mxPoint x="550" y="270" as="targetPoint" />
          </mxGeometry>
        </mxCell>
        <mxCell id="Ppu2Rc4KOoDO8tjX3kSv-7" value="" style="endArrow=classic;html=1;rounded=0;exitX=0.25;exitY=1;exitDx=0;exitDy=0;entryX=0.5;entryY=0;entryDx=0;entryDy=0;" edge="1" parent="1" source="Ppu2Rc4KOoDO8tjX3kSv-1" target="Ppu2Rc4KOoDO8tjX3kSv-3">
          <mxGeometry width="50" height="50" relative="1" as="geometry">
            <mxPoint x="500" y="320" as="sourcePoint" />
            <mxPoint x="550" y="270" as="targetPoint" />
          </mxGeometry>
        </mxCell>
        <mxCell id="Ppu2Rc4KOoDO8tjX3kSv-8" value="" style="endArrow=classic;html=1;rounded=0;exitX=0.5;exitY=1;exitDx=0;exitDy=0;entryX=0.5;entryY=0;entryDx=0;entryDy=0;" edge="1" parent="1" source="Ppu2Rc4KOoDO8tjX3kSv-1" target="Ppu2Rc4KOoDO8tjX3kSv-4">
          <mxGeometry width="50" height="50" relative="1" as="geometry">
            <mxPoint x="500" y="320" as="sourcePoint" />
            <mxPoint x="550" y="270" as="targetPoint" />
          </mxGeometry>
        </mxCell>
        <mxCell id="Ppu2Rc4KOoDO8tjX3kSv-9" value="" style="endArrow=classic;html=1;rounded=0;exitX=0.75;exitY=1;exitDx=0;exitDy=0;entryX=0.5;entryY=0;entryDx=0;entryDy=0;" edge="1" parent="1" source="Ppu2Rc4KOoDO8tjX3kSv-1" target="Ppu2Rc4KOoDO8tjX3kSv-5">
          <mxGeometry width="50" height="50" relative="1" as="geometry">
            <mxPoint x="860" y="320" as="sourcePoint" />
            <mxPoint x="910" y="270" as="targetPoint" />
          </mxGeometry>
        </mxCell>
        <mxCell id="Ppu2Rc4KOoDO8tjX3kSv-10" value="Results" style="rounded=0;whiteSpace=wrap;html=1;" vertex="1" parent="1">
          <mxGeometry x="840" y="200" width="120" height="60" as="geometry" />
        </mxCell>
        <mxCell id="Ppu2Rc4KOoDO8tjX3kSv-11" value="" style="endArrow=classic;html=1;rounded=0;exitX=1;exitY=1;exitDx=0;exitDy=0;entryX=0.5;entryY=0;entryDx=0;entryDy=0;" edge="1" parent="1" source="Ppu2Rc4KOoDO8tjX3kSv-1" target="Ppu2Rc4KOoDO8tjX3kSv-10">
          <mxGeometry width="50" height="50" relative="1" as="geometry">
            <mxPoint x="740" y="320" as="sourcePoint" />
            <mxPoint x="790" y="270" as="targetPoint" />
          </mxGeometry>
        </mxCell>
      </root>
    </mxGraphModel>
  </diagram>
  <diagram id="aFmosBf2PMADjK5doLhc" name="landing page">
    <mxGraphModel dx="887" dy="948" grid="1" gridSize="10" guides="1" tooltips="1" connect="1" arrows="1" fold="1" page="1" pageScale="1" pageWidth="827" pageHeight="1169" background="#282a36" math="0" shadow="0">
      <root>
        <mxCell id="0" />
        <mxCell id="1" parent="0" />
        <mxCell id="JmdLGJ13e1TjF4Imn2WD-1" value="&lt;h1&gt;meet_name&lt;/h1&gt;&lt;p&gt;meet_date&lt;/p&gt;&lt;p&gt;meet location&lt;/p&gt;&lt;p&gt;meet_state, meet_country&lt;/p&gt;" style="text;html=1;strokeColor=none;fillColor=none;spacing=5;spacingTop=-20;whiteSpace=wrap;overflow=hidden;rounded=0;" vertex="1" parent="1">
          <mxGeometry x="80" y="200" width="190" height="120" as="geometry" />
        </mxCell>
        <mxCell id="JmdLGJ13e1TjF4Imn2WD-2" value="&lt;font style=&quot;font-size: 36px;&quot;&gt;&lt;b&gt;APL Logo&lt;/b&gt;&lt;/font&gt;" style="text;html=1;strokeColor=none;fillColor=none;align=center;verticalAlign=middle;whiteSpace=wrap;rounded=0;" vertex="1" parent="1">
          <mxGeometry x="316" y="80" width="195" height="60" as="geometry" />
        </mxCell>
        <mxCell id="JmdLGJ13e1TjF4Imn2WD-3" value="&lt;font style=&quot;font-size: 14px;&quot; color=&quot;#44475a&quot;&gt;&lt;b&gt;Enter meet&lt;/b&gt;&lt;/font&gt;" style="rounded=0;whiteSpace=wrap;html=1;fillColor=#ff5555;strokeColor=#1A1A1A;" vertex="1" parent="1">
          <mxGeometry x="40" y="480" width="120" height="40" as="geometry" />
        </mxCell>
        <mxCell id="JmdLGJ13e1TjF4Imn2WD-4" value="&lt;font style=&quot;font-size: 14px;&quot; color=&quot;#44475a&quot;&gt;&lt;b&gt;weigh in&lt;/b&gt;&lt;/font&gt;" style="rounded=0;whiteSpace=wrap;html=1;fillColor=#FF5555;" vertex="1" parent="1">
          <mxGeometry x="200" y="480" width="120" height="40" as="geometry" />
        </mxCell>
        <mxCell id="JmdLGJ13e1TjF4Imn2WD-5" value="&lt;font style=&quot;font-size: 14px;&quot; color=&quot;#44475a&quot;&gt;&lt;b&gt;summary of entrants&lt;/b&gt;&lt;/font&gt;" style="rounded=0;whiteSpace=wrap;html=1;fillColor=#FF5555;" vertex="1" parent="1">
          <mxGeometry x="360" y="480" width="120" height="40" as="geometry" />
        </mxCell>
        <mxCell id="JmdLGJ13e1TjF4Imn2WD-7" value="&lt;b&gt;&lt;font color=&quot;#44475a&quot; style=&quot;font-size: 14px;&quot;&gt;run meet&lt;/font&gt;&lt;/b&gt;" style="rounded=0;whiteSpace=wrap;html=1;fillColor=#FF5555;" vertex="1" parent="1">
          <mxGeometry x="520" y="480" width="120" height="40" as="geometry" />
        </mxCell>
        <mxCell id="JmdLGJ13e1TjF4Imn2WD-8" value="&lt;b&gt;&lt;font color=&quot;#44475a&quot; style=&quot;font-size: 14px;&quot;&gt;results&lt;/font&gt;&lt;/b&gt;" style="rounded=0;whiteSpace=wrap;html=1;fillColor=#FF5555;" vertex="1" parent="1">
          <mxGeometry x="680" y="480" width="120" height="40" as="geometry" />
        </mxCell>
      </root>
    </mxGraphModel>
  </diagram>
  <diagram id="D8fmSzC8XntZgDDKwIBr" name="enter_meet">
    <mxGraphModel dx="760" dy="813" grid="1" gridSize="10" guides="1" tooltips="1" connect="1" arrows="1" fold="1" page="1" pageScale="1" pageWidth="827" pageHeight="1169" background="#2B2B2B" math="0" shadow="0">
      <root>
        <mxCell id="0" />
        <mxCell id="1" parent="0" />
        <mxCell id="kB9ZfWuHvmr45apk8Ges-2" value="&lt;font color=&quot;#ffc66d&quot; style=&quot;font-size: 36px;&quot;&gt;Australian Powerlifting League&lt;/font&gt;" style="text;html=1;strokeColor=none;fillColor=none;align=center;verticalAlign=middle;whiteSpace=wrap;rounded=0;" vertex="1" parent="1">
          <mxGeometry x="150" y="40" width="530" height="50" as="geometry" />
        </mxCell>
        <mxCell id="kB9ZfWuHvmr45apk8Ges-3" value="&lt;font color=&quot;#ffc66d&quot; style=&quot;font-size: 24px;&quot;&gt;Meet Registration&lt;/font&gt;" style="text;html=1;strokeColor=none;fillColor=none;align=center;verticalAlign=middle;whiteSpace=wrap;rounded=0;" vertex="1" parent="1">
          <mxGeometry x="284" y="120" width="260" height="30" as="geometry" />
        </mxCell>
        <mxCell id="kB9ZfWuHvmr45apk8Ges-4" value="" style="rounded=0;whiteSpace=wrap;html=1;fillColor=#3C3F41;" vertex="1" parent="1">
          <mxGeometry x="120" y="240" width="640" height="40" as="geometry" />
        </mxCell>
        <mxCell id="kB9ZfWuHvmr45apk8Ges-5" value="&lt;b&gt;First Name&lt;/b&gt;" style="text;html=1;strokeColor=none;fillColor=none;align=left;verticalAlign=middle;whiteSpace=wrap;rounded=0;" vertex="1" parent="1">
          <mxGeometry x="120" y="210" width="70" height="30" as="geometry" />
        </mxCell>
        <mxCell id="kB9ZfWuHvmr45apk8Ges-6" value="" style="rounded=0;whiteSpace=wrap;html=1;fillColor=#3C3F41;" vertex="1" parent="1">
          <mxGeometry x="120" y="320" width="640" height="40" as="geometry" />
        </mxCell>
        <mxCell id="kB9ZfWuHvmr45apk8Ges-7" value="" style="rounded=0;whiteSpace=wrap;html=1;fillColor=#3C3F41;" vertex="1" parent="1">
          <mxGeometry x="120" y="400" width="640" height="40" as="geometry" />
        </mxCell>
        <mxCell id="kB9ZfWuHvmr45apk8Ges-8" value="&lt;b&gt;Last Name&lt;/b&gt;" style="text;html=1;strokeColor=none;fillColor=none;align=left;verticalAlign=middle;whiteSpace=wrap;rounded=0;" vertex="1" parent="1">
          <mxGeometry x="120" y="290" width="80" height="30" as="geometry" />
        </mxCell>
        <mxCell id="kB9ZfWuHvmr45apk8Ges-9" value="&lt;b&gt;email&lt;/b&gt;" style="text;html=1;strokeColor=none;fillColor=none;align=left;verticalAlign=middle;whiteSpace=wrap;rounded=0;" vertex="1" parent="1">
          <mxGeometry x="120" y="370" width="120" height="30" as="geometry" />
        </mxCell>
        <mxCell id="kB9ZfWuHvmr45apk8Ges-10" value="" style="rounded=0;whiteSpace=wrap;html=1;fillColor=#3C3F41;" vertex="1" parent="1">
          <mxGeometry x="120" y="480" width="640" height="40" as="geometry" />
        </mxCell>
        <mxCell id="kB9ZfWuHvmr45apk8Ges-11" value="&lt;b&gt;mobile phone number&lt;/b&gt;" style="text;html=1;strokeColor=none;fillColor=none;align=left;verticalAlign=middle;whiteSpace=wrap;rounded=0;" vertex="1" parent="1">
          <mxGeometry x="120" y="450" width="135" height="30" as="geometry" />
        </mxCell>
        <mxCell id="kB9ZfWuHvmr45apk8Ges-12" value="" style="rounded=0;whiteSpace=wrap;html=1;fillColor=#3C3F41;" vertex="1" parent="1">
          <mxGeometry x="120" y="555" width="640" height="45" as="geometry" />
        </mxCell>
        <mxCell id="kB9ZfWuHvmr45apk8Ges-13" value="Gender" style="text;html=1;strokeColor=none;fillColor=none;align=left;verticalAlign=middle;whiteSpace=wrap;rounded=0;" vertex="1" parent="1">
          <mxGeometry x="120" y="525" width="60" height="30" as="geometry" />
        </mxCell>
        <mxCell id="kB9ZfWuHvmr45apk8Ges-14" value="" style="rounded=0;whiteSpace=wrap;html=1;fillColor=#3C3F41;" vertex="1" parent="1">
          <mxGeometry x="120" y="640" width="640" height="40" as="geometry" />
        </mxCell>
        <mxCell id="kB9ZfWuHvmr45apk8Ges-15" value="&lt;b&gt;Equipment&lt;/b&gt;" style="text;html=1;strokeColor=none;fillColor=none;align=left;verticalAlign=middle;whiteSpace=wrap;rounded=0;" vertex="1" parent="1">
          <mxGeometry x="120" y="610" width="60" height="30" as="geometry" />
        </mxCell>
        <mxCell id="kB9ZfWuHvmr45apk8Ges-16" value="" style="rounded=0;whiteSpace=wrap;html=1;fillColor=#3C3F41;" vertex="1" parent="1">
          <mxGeometry x="120" y="720" width="640" height="40" as="geometry" />
        </mxCell>
        <mxCell id="kB9ZfWuHvmr45apk8Ges-17" value="&lt;b&gt;Event&lt;/b&gt;" style="text;html=1;strokeColor=none;fillColor=none;align=left;verticalAlign=middle;whiteSpace=wrap;rounded=0;" vertex="1" parent="1">
          <mxGeometry x="120" y="690" width="60" height="30" as="geometry" />
        </mxCell>
        <mxCell id="kB9ZfWuHvmr45apk8Ges-18" value="" style="rounded=0;whiteSpace=wrap;html=1;fillColor=#3C3F41;" vertex="1" parent="1">
          <mxGeometry x="120" y="800" width="640" height="40" as="geometry" />
        </mxCell>
        <mxCell id="kB9ZfWuHvmr45apk8Ges-19" value="" style="rounded=0;whiteSpace=wrap;html=1;fillColor=#3C3F41;" vertex="1" parent="1">
          <mxGeometry x="120" y="880" width="640" height="40" as="geometry" />
        </mxCell>
        <mxCell id="kB9ZfWuHvmr45apk8Ges-20" value="&lt;b&gt;Date of Birth&lt;/b&gt;" style="text;html=1;strokeColor=none;fillColor=none;align=left;verticalAlign=middle;whiteSpace=wrap;rounded=0;" vertex="1" parent="1">
          <mxGeometry x="120" y="770" width="80" height="30" as="geometry" />
        </mxCell>
        <mxCell id="kB9ZfWuHvmr45apk8Ges-22" value="&lt;b&gt;Next of Kin Name&lt;/b&gt;" style="text;html=1;strokeColor=none;fillColor=none;align=center;verticalAlign=middle;whiteSpace=wrap;rounded=0;" vertex="1" parent="1">
          <mxGeometry x="120" y="850" width="110" height="30" as="geometry" />
        </mxCell>
        <mxCell id="kB9ZfWuHvmr45apk8Ges-23" value="" style="rounded=0;whiteSpace=wrap;html=1;fillColor=#3C3F41;" vertex="1" parent="1">
          <mxGeometry x="120" y="960" width="640" height="40" as="geometry" />
        </mxCell>
        <mxCell id="kB9ZfWuHvmr45apk8Ges-24" value="&lt;b&gt;Next of Kin Phone Number&lt;/b&gt;" style="text;html=1;strokeColor=none;fillColor=none;align=center;verticalAlign=middle;whiteSpace=wrap;rounded=0;" vertex="1" parent="1">
          <mxGeometry x="120" y="930" width="160" height="30" as="geometry" />
        </mxCell>
        <mxCell id="kB9ZfWuHvmr45apk8Ges-25" value="" style="rounded=0;whiteSpace=wrap;html=1;fillColor=#4D9900;" vertex="1" parent="1">
          <mxGeometry x="120" y="1040" width="640" height="40" as="geometry" />
        </mxCell>
        <mxCell id="kB9ZfWuHvmr45apk8Ges-26" value="&lt;b&gt;Submit&lt;/b&gt;" style="text;html=1;strokeColor=none;fillColor=#6A8759;align=center;verticalAlign=middle;whiteSpace=wrap;rounded=0;" vertex="1" parent="1">
          <mxGeometry x="120" y="1040" width="640" height="40" as="geometry" />
        </mxCell>
      </root>
    </mxGraphModel>
  </diagram>
  <diagram id="FIrsDI_qTUEw-CdDVTV9" name="weigh_in">
    <mxGraphModel dx="745" dy="569" grid="1" gridSize="10" guides="1" tooltips="1" connect="1" arrows="1" fold="1" page="1" pageScale="1" pageWidth="827" pageHeight="1169" math="0" shadow="0">
      <root>
        <mxCell id="0" />
        <mxCell id="1" parent="0" />
      </root>
    </mxGraphModel>
  </diagram>
  <diagram id="0_iIYAWvUkIQbRiZGB7K" name="summary_of_entrants">
    <mxGraphModel dx="745" dy="569" grid="1" gridSize="10" guides="1" tooltips="1" connect="1" arrows="1" fold="1" page="1" pageScale="1" pageWidth="827" pageHeight="1169" math="0" shadow="0">
      <root>
        <mxCell id="0" />
        <mxCell id="1" parent="0" />
      </root>
    </mxGraphModel>
  </diagram>
  <diagram id="mBh2SyOM3CaRghXctSHc" name="run_meet">
    <mxGraphModel dx="745" dy="569" grid="1" gridSize="10" guides="1" tooltips="1" connect="1" arrows="1" fold="1" page="1" pageScale="1" pageWidth="827" pageHeight="1169" math="0" shadow="0">
      <root>
        <mxCell id="0" />
        <mxCell id="1" parent="0" />
      </root>
    </mxGraphModel>
  </diagram>
  <diagram id="ewjPxPz8rFQjqwhigaiP" name="report_results">
    <mxGraphModel dx="1656" dy="1264" grid="1" gridSize="10" guides="1" tooltips="1" connect="1" arrows="1" fold="1" page="1" pageScale="1" pageWidth="827" pageHeight="1169" math="0" shadow="0">
      <root>
        <mxCell id="0" />
        <mxCell id="1" parent="0" />
      </root>
    </mxGraphModel>
  </diagram>
</mxfile>
